<svg width="25" height="25" viewBox="0 0 25 25" fill="none" xmlns="http://www.w3.org/2000/svg">
<g clip-path="url(#clip0_2_41)">
<g clip-path="url(#clip1_2_41)">
<path d="M12.66 2.88C7.14003 2.88 2.66003 7.36 2.66003 12.88C2.66003 18.4 7.14003 22.88 12.66 22.88C18.18 22.88 22.66 18.4 22.66 12.88C22.66 7.36 18.19 2.88 12.66 2.88Z" fill="#90A3BF"/>
<path d="M20.66 12.88C20.66 8.46173 17.0783 4.88 12.66 4.88C8.24176 4.88 4.66003 8.46173 4.66003 12.88C4.66003 17.2983 8.24176 20.88 12.66 20.88C17.0783 20.88 20.66 17.2983 20.66 12.88Z" fill="white"/>
<path d="M12.66 6.88C9.34803 6.88 6.66003 9.568 6.66003 12.88C6.66003 16.192 9.34803 18.88 12.66 18.88C15.972 18.88 18.66 16.192 18.66 12.88C18.66 9.568 15.978 6.88 12.66 6.88Z" fill="#90A3BF"/>
<path d="M16.66 12.88C16.66 10.6709 14.8692 8.88 12.66 8.88C10.4509 8.88 8.66003 10.6709 8.66003 12.88C8.66003 15.0891 10.4509 16.88 12.66 16.88C14.8692 16.88 16.66 15.0891 16.66 12.88Z" fill="white"/>
<path d="M13.66 17.88H11.66V21.88H13.66V17.88Z" fill="#90A3BF"/>
<path d="M21.66 11.88H17.66V13.88H21.66V11.88Z" fill="#90A3BF"/>
<path d="M7.66003 11.88H3.66003V13.88H7.66003V11.88Z" fill="#90A3BF"/>
</g>
</g>
<defs>
<clipPath id="clip0_2_41">
<rect width="24" height="24" fill="white" transform="translate(0.660034 0.880005)"/>
</clipPath>
<clipPath id="clip1_2_41">
<rect width="24" height="24" fill="white" transform="translate(0.660034 0.880005)"/>
</clipPath>
</defs>
</svg>
