<svg width="25" height="25" viewBox="0 0 25 25" fill="none" xmlns="http://www.w3.org/2000/svg">
<g clip-path="url(#clip0_2_36)">
<g clip-path="url(#clip1_2_36)">
<path d="M22.96 10.21L20.96 9.21C20.59 9.03 20.13 9.17 19.95 9.54C19.76 9.92 19.91 10.37 20.28 10.55L21.87 11.34V16.13L18.12 16.14V5.88C18.12 3.88 16.78 2.88 15.12 2.88H7.12C5.46 2.88 4.12 3.88 4.12 5.88V22.13H2.62C2.21 22.13 1.87 22.47 1.87 22.88C1.87 23.29 2.21 23.63 2.62 23.63H19.62C20.03 23.63 20.37 23.29 20.37 22.88C20.37 22.47 20.03 22.13 19.62 22.13H18.12V17.64L22.62 17.63C23.04 17.63 23.37 17.29 23.37 16.88V10.88C23.37 10.6 23.21 10.34 22.96 10.21ZM6.62 7.77C6.62 6.38 7.47 5.88 8.50999 5.88H13.74C14.77 5.88 15.62 6.38 15.62 7.77V9C15.62 10.38 14.77 10.88 13.73 10.88H8.50999C7.47 10.88 6.62 10.38 6.62 8.99V7.77ZM7.12 13.13H10.12C10.53 13.13 10.87 13.47 10.87 13.88C10.87 14.29 10.53 14.63 10.12 14.63H7.12C6.71 14.63 6.37 14.29 6.37 13.88C6.37 13.47 6.71 13.13 7.12 13.13Z" fill="#90A3BF"/>
</g>
</g>
<defs>
<clipPath id="clip0_2_36">
<rect width="24" height="24" fill="white" transform="translate(0.619995 0.880005)"/>
</clipPath>
<clipPath id="clip1_2_36">
<rect width="24" height="24" fill="white" transform="translate(0.619995 0.880005)"/>
</clipPath>
</defs>
</svg>
