<svg width="25" height="25" viewBox="0 0 25 25" fill="none" xmlns="http://www.w3.org/2000/svg">
<g clip-path="url(#clip0_2_52)">
<g clip-path="url(#clip1_2_52)">
<path d="M9.63 2.88C7.01 2.88 4.88 5.01 4.88 7.63C4.88 10.2 6.89001 12.28 9.51 12.37C9.59 12.36 9.67001 12.36 9.73001 12.37C9.75001 12.37 9.76 12.37 9.78 12.37C9.79 12.37 9.79 12.37 9.8 12.37C12.36 12.28 14.37 10.2 14.38 7.63C14.38 5.01 12.25 2.88 9.63 2.88Z" fill="#90A3BF"/>
<path d="M14.71 15.03C11.92 13.17 7.36997 13.17 4.55997 15.03C3.28997 15.88 2.58997 17.03 2.58997 18.26C2.58997 19.49 3.28997 20.63 4.54997 21.47C5.94997 22.41 7.78997 22.88 9.62997 22.88C11.47 22.88 13.31 22.41 14.71 21.47C15.97 20.62 16.67 19.48 16.67 18.24C16.66 17.01 15.97 15.87 14.71 15.03Z" fill="#90A3BF"/>
<path d="M20.6201 8.22004C20.7801 10.16 19.4001 11.86 17.4901 12.09C17.4801 12.09 17.4801 12.09 17.4701 12.09H17.4401C17.3801 12.09 17.3201 12.09 17.2701 12.11C16.3001 12.16 15.4101 11.85 14.7401 11.28C15.7701 10.36 16.3601 8.98004 16.2401 7.48004C16.1701 6.67004 15.8901 5.93004 15.4701 5.30004C15.8501 5.11004 16.2901 4.99004 16.7401 4.95004C18.7001 4.78004 20.4501 6.24004 20.6201 8.22004Z" fill="#90A3BF"/>
<path d="M22.62 17.47C22.54 18.44 21.92 19.28 20.88 19.85C19.88 20.4 18.62 20.66 17.37 20.63C18.09 19.98 18.51 19.17 18.59 18.31C18.69 17.07 18.1 15.88 16.92 14.93C16.25 14.4 15.47 13.98 14.62 13.67C16.83 13.03 19.61 13.46 21.32 14.84C22.24 15.58 22.71 16.51 22.62 17.47Z" fill="#90A3BF"/>
</g>
</g>
<defs>
<clipPath id="clip0_2_52">
<rect width="24" height="24" fill="white" transform="translate(0.630005 0.880005)"/>
</clipPath>
<clipPath id="clip1_2_52">
<rect width="24" height="24" fill="white" transform="translate(0.630005 0.880005)"/>
</clipPath>
</defs>
</svg>
